<svg width="242.799988" height="120.000000" viewBox="0 0 242.8 120" fill="none" xmlns="http://www.w3.org/2000/svg" xmlns:xlink="http://www.w3.org/1999/xlink">
	<desc>
			Created with Pixso.
	</desc>
	<defs>
		<clipPath id="clip22_251">
			<rect id="MISIS_logoblock_main_rus_RGB-01 1" rx="0.000000" width="241.799988" height="119.000000" transform="translate(0.500000 0.500000)" fill="white" fill-opacity="0"/>
		</clipPath>
		<linearGradient x1="36.460548" y1="97.022743" x2="50.434639" y2="17.773014" id="paint_linear_22_253_0" gradientUnits="userSpaceOnUse">
			<stop offset="0.050000" stop-color="#0541F0"/>
			<stop offset="0.210000" stop-color="#126CF4"/>
			<stop offset="0.440000" stop-color="#22A2F9"/>
			<stop offset="0.640000" stop-color="#2DCAFC"/>
			<stop offset="0.800000" stop-color="#34E2FE"/>
			<stop offset="0.900000" stop-color="#37EBFF"/>
		</linearGradient>
		<linearGradient x1="53.119999" y1="66.879982" x2="66.879990" y2="53.119991" id="paint_linear_22_254_0" gradientUnits="userSpaceOnUse">
			<stop offset="0.060000" stop-color="#37EBFF"/>
			<stop offset="0.190000" stop-color="#36E7FF"/>
			<stop offset="0.320000" stop-color="#32DAFE"/>
			<stop offset="0.450000" stop-color="#2CC6FC"/>
			<stop offset="0.580000" stop-color="#23A9F9"/>
			<stop offset="0.710000" stop-color="#1883F6"/>
			<stop offset="0.850000" stop-color="#0B56F2"/>
			<stop offset="0.900000" stop-color="#0541F0"/>
		</linearGradient>
		<linearGradient x1="59.634567" y1="90.136208" x2="79.718918" y2="34.955681" id="paint_linear_22_255_0" gradientUnits="userSpaceOnUse">
			<stop offset="0.050000" stop-color="#37EBFF"/>
			<stop offset="0.160000" stop-color="#2DC8FC"/>
			<stop offset="0.340000" stop-color="#1F98F8"/>
			<stop offset="0.510000" stop-color="#1472F4"/>
			<stop offset="0.660000" stop-color="#0C57F2"/>
			<stop offset="0.800000" stop-color="#0747F1"/>
			<stop offset="0.900000" stop-color="#0541F0"/>
		</linearGradient>
		<linearGradient x1="43.788109" y1="72.071365" x2="72.071350" y2="43.785965" id="paint_linear_22_256_0" gradientUnits="userSpaceOnUse">
			<stop offset="0.110000" stop-color="#0541F0"/>
			<stop offset="0.890000" stop-color="#37EBFF"/>
		</linearGradient>
	</defs>
	<rect id="MISIS_logoblock_main_rus_RGB-01 1" rx="0.000000" width="241.799988" height="119.000000" transform="translate(0.500000 0.500000)" fill="#FFFFFF" fill-opacity="0"/>
	<g clip-path="url(#clip22_251)">
		<path id="Vector" d="M60 90.27C51.97 90.27 44.27 87.08 38.59 81.4C32.91 75.72 29.72 68.02 29.72 60C29.72 51.97 32.91 44.27 38.59 38.59C44.27 32.91 51.97 29.72 60 29.72L60 19.45C37.62 19.45 19.45 37.62 19.45 60C19.45 82.37 37.62 100.54 60 100.54L60 90.27Z" fill="url(#paint_linear_22_253_0)" fill-opacity="1.000000" fill-rule="nonzero"/>
		<path id="Vector" d="M69.72 60C69.72 65.37 65.37 69.72 60 69.72C54.62 69.72 50.27 65.37 50.27 60C50.27 54.62 54.62 50.27 60 50.27C65.37 50.27 69.72 54.62 69.72 60Z" fill="url(#paint_linear_22_254_0)" fill-opacity="1.000000" fill-rule="evenodd"/>
		<path id="Vector" d="M60 29.72L60 40C65.3 40 70.39 42.1 74.14 45.85C77.89 49.6 80 54.69 80 60C80 65.3 77.89 70.39 74.14 74.14C70.39 77.89 65.3 80 60 80L60 90.27C68.02 90.27 75.72 87.08 81.4 81.4C87.08 75.72 90.27 68.02 90.27 60C90.27 51.97 87.08 44.27 81.4 38.59C75.72 32.91 68.02 29.72 60 29.72Z" fill="url(#paint_linear_22_255_0)" fill-opacity="1.000000" fill-rule="nonzero"/>
		<path id="Vector" d="M60 69.72C58.07 69.72 56.19 69.15 54.59 68.08C52.99 67.02 51.74 65.5 51.01 63.72C50.27 61.94 50.08 59.98 50.45 58.1C50.83 56.21 51.75 54.48 53.12 53.12C54.48 51.75 56.21 50.83 58.1 50.45C59.98 50.08 61.94 50.27 63.72 51.01C65.5 51.74 67.02 52.99 68.08 54.59C69.15 56.19 69.72 58.07 69.72 60L80 60C80 56.04 78.82 52.17 76.62 48.88C74.43 45.59 71.3 43.03 67.65 41.52C63.99 40 59.97 39.61 56.09 40.38C52.21 41.15 48.65 43.06 45.85 45.85C43.06 48.65 41.15 52.21 40.38 56.09C39.61 59.97 40 63.99 41.52 67.65C43.03 71.3 45.59 74.43 48.88 76.62C52.17 78.82 56.04 80 60 80L60 69.72Z" fill="url(#paint_linear_22_256_0)" fill-opacity="1.000000" fill-rule="nonzero"/>
		<path id="Vector" d="M110.28 74.68L110.25 74.68L106.99 68.64L105.1 68.64L109.41 76.49L109.35 76.6C108.93 77.45 108.42 78.02 107.39 78.02C107.09 78.02 106.79 77.97 106.49 77.9L106.49 79.38C106.85 79.52 107.23 79.59 107.61 79.58C109.12 79.58 110.15 78.7 110.89 77.06L114.68 68.64L112.93 68.64L110.28 74.68ZM123.77 73.2L118.44 73.2L118.44 68.64L116.75 68.64L116.75 79.45L118.45 79.45L118.45 74.74L123.78 74.74L123.78 79.45L125.48 79.45L125.48 68.64L123.78 68.64L123.77 73.2ZM130.36 76.67L130.31 76.67L130.31 68.64L128.61 68.64L128.61 79.45L130.16 79.45L136.07 71.42L136.1 71.42L136.1 79.45L137.8 79.45L137.8 68.64L136.26 68.64L130.36 76.67ZM147.17 73.65C147.58 73.46 147.92 73.15 148.16 72.77C148.4 72.39 148.52 71.95 148.52 71.5C148.52 69.96 147.2 68.64 145.27 68.64L140.95 68.64L140.95 79.45L145.51 79.45C147.6 79.45 149.06 77.99 149.06 76.29C149.06 74.87 147.96 73.94 147.17 73.65ZM142.65 70.11L145.27 70.11C146.2 70.11 146.82 70.73 146.82 71.58C146.82 72.43 146.2 73.05 145.27 73.05L142.65 73.05L142.65 70.11ZM145.51 77.99L142.65 77.99L142.65 74.44L145.51 74.44C146.59 74.44 147.36 75.21 147.36 76.21C147.36 77.21 146.59 77.99 145.51 77.99ZM153.29 74.62L158 74.62L158 73.08L153.28 73.08L153.28 70.19L159.23 70.19L159.23 68.64L151.58 68.64L151.58 79.45L159.38 79.45L159.38 77.91L153.28 77.91L153.29 74.62ZM166.03 68.64L161.7 68.64L161.7 79.45L163.4 79.45L163.4 75.59L166.03 75.59C168.11 75.59 169.65 74.05 169.65 72.12C169.65 70.19 168.1 68.64 166.01 68.64L166.03 68.64ZM166.03 74.05L163.39 74.05L163.39 70.19L166.01 70.19C166.52 70.19 167.02 70.39 167.38 70.75C167.74 71.12 167.94 71.61 167.94 72.12C167.94 72.63 167.74 73.12 167.38 73.48C167.02 73.85 166.52 74.05 166.01 74.05L166.03 74.05ZM177.18 78.06C176.12 78.06 175.1 77.64 174.34 76.89C173.59 76.14 173.17 75.11 173.17 74.05C173.17 72.98 173.59 71.96 174.34 71.21C175.1 70.46 176.12 70.03 177.18 70.03C177.8 70.03 178.4 70.16 178.96 70.42C179.52 70.68 180.01 71.06 180.4 71.53L181.58 70.56C181.05 69.91 180.38 69.39 179.62 69.03C178.86 68.67 178.02 68.49 177.18 68.49C173.94 68.49 171.47 70.96 171.47 74.05C171.47 77.14 173.94 79.61 177.18 79.61C178.04 79.61 178.88 79.42 179.66 79.05C180.43 78.69 181.12 78.15 181.66 77.49L180.47 76.52C179.83 77.23 178.84 78.06 177.17 78.06L177.18 78.06ZM185.58 76.67L185.54 76.67L185.54 68.64L183.84 68.64L183.84 79.45L185.38 79.45L191.3 71.42L191.33 71.42L191.33 79.45L193.03 79.45L193.03 68.64L191.48 68.64L185.58 76.67ZM195.13 70.19L198.37 70.19L198.37 79.45L200.07 79.45L200.07 70.19L203.31 70.19L203.31 68.64L195.11 68.64L195.13 70.19ZM207.1 74.62L211.81 74.62L211.81 73.08L207.09 73.08L207.09 70.19L213.03 70.19L213.03 68.64L205.39 68.64L205.39 79.45L213.18 79.45L213.18 77.91L207.09 77.91L207.1 74.62ZM214.87 68.64L214.87 70.19L218.11 70.19L218.11 79.45L219.81 79.45L219.81 70.19L223.05 70.19L223.05 68.64L214.87 68.64Z" fill="#505569" fill-opacity="1.000000" fill-rule="nonzero"/>
		<path id="Vector" d="M117.56 49.41L107.05 38.12L105.4 38.12L105.4 60L110.01 60L110.01 47.67L116.91 54.91L118.21 54.91L125.11 47.67L125.11 59.99L129.72 59.99L129.72 38.12L128.06 38.12L117.56 49.41ZM138.57 51.37L138.57 38.37L133.97 38.37L133.97 60.25L135.75 60.25L149.18 47L149.18 60L153.79 60L153.79 38.12L152.01 38.12L138.57 51.37ZM168.01 42.32C170.4 42.32 172.53 43.61 173.93 45.74L177.18 42.61C176.13 41.15 174.75 39.97 173.16 39.15C171.56 38.33 169.8 37.9 168.01 37.9C161.78 37.9 156.55 42.8 156.55 49.18C156.55 55.56 161.79 60.47 168.01 60.47C169.8 60.47 171.56 60.04 173.16 59.22C174.75 58.4 176.13 57.22 177.18 55.76L173.93 52.63C172.53 54.75 170.4 56.05 168.01 56.05C164.29 56.05 161.26 53.2 161.26 49.18C161.26 45.17 164.29 42.32 168.01 42.32ZM184.73 51.37L184.73 38.37L180.12 38.37L180.12 60.25L181.91 60.25L195.35 47L195.35 60L199.95 60L199.95 38.12L198.17 38.12L184.73 51.37ZM214.16 56.05C210.45 56.05 207.42 53.2 207.42 49.18C207.42 45.17 210.45 42.32 214.16 42.32C216.56 42.32 218.69 43.61 220.09 45.74L223.33 42.61C222.29 41.15 220.91 39.97 219.31 39.15C217.72 38.33 215.95 37.9 214.16 37.9C207.94 37.9 202.69 42.8 202.69 49.18C202.69 55.56 207.94 60.47 214.16 60.47C215.96 60.47 217.72 60.04 219.32 59.22C220.92 58.4 222.3 57.22 223.35 55.76L220.1 52.63C218.69 54.75 216.56 56.05 214.16 56.05Z" fill="#505569" fill-opacity="1.000000" fill-rule="nonzero"/>
	</g>
</svg>
