<svg width="243" height="120" viewBox="0 0 243 120" fill="none" xmlns="http://www.w3.org/2000/svg">
<g clip-path="url(#clip0_22_251)">
<path d="M60 90.2703C51.9718 90.2703 44.2725 87.0811 38.5957 81.4043C32.9189 75.7276 29.7297 68.0282 29.7297 60C29.7297 51.9718 32.9189 44.2725 38.5957 38.5957C44.2725 32.9189 51.9718 29.7297 60 29.7297V19.4595C37.6216 19.4595 19.4595 37.6216 19.4595 60C19.4595 82.3784 37.6216 100.541 60 100.541V90.2703Z" fill="url(#paint0_linear_22_251)"/>
<path d="M60 69.7297C65.3736 69.7297 69.7297 65.3736 69.7297 60C69.7297 54.6264 65.3736 50.2703 60 50.2703C54.6264 50.2703 50.2703 54.6264 50.2703 60C50.2703 65.3736 54.6264 69.7297 60 69.7297Z" fill="url(#paint1_linear_22_251)"/>
<path d="M60 29.7297V40C65.3043 40 70.3914 42.1071 74.1421 45.8579C77.8929 49.6086 80 54.6957 80 60C80 65.3043 77.8929 70.3914 74.1421 74.1421C70.3914 77.8929 65.3043 80 60 80V90.2703C68.0282 90.2703 75.7275 87.0811 81.4043 81.4043C87.0811 75.7275 90.2703 68.0282 90.2703 60C90.2703 51.9718 87.0811 44.2725 81.4043 38.5957C75.7275 32.9189 68.0282 29.7297 60 29.7297Z" fill="url(#paint2_linear_22_251)"/>
<path d="M60 69.7297C58.0757 69.7297 56.1945 69.1591 54.5945 68.09C52.9944 67.0209 51.7473 65.5013 51.0109 63.7234C50.2745 61.9455 50.0818 59.9892 50.4572 58.1018C50.8327 56.2145 51.7593 54.4808 53.1201 53.1201C54.4808 51.7593 56.2145 50.8327 58.1018 50.4572C59.9892 50.0818 61.9455 50.2745 63.7234 51.0109C65.5013 51.7473 67.0209 52.9944 68.09 54.5945C69.1591 56.1945 69.7297 58.0757 69.7297 60H80C80 56.0444 78.827 52.1776 76.6294 48.8886C74.4318 45.5996 71.3082 43.0362 67.6537 41.5224C63.9992 40.0087 59.9778 39.6126 56.0982 40.3843C52.2186 41.156 48.6549 43.0608 45.8579 45.8579C43.0608 48.6549 41.156 52.2186 40.3843 56.0982C39.6126 59.9778 40.0087 63.9992 41.5224 67.6537C43.0362 71.3082 45.5996 74.4318 48.8886 76.6294C52.1776 78.827 56.0444 80 60 80V69.7297Z" fill="url(#paint3_linear_22_251)"/>
<path d="M110.281 74.6876H110.251L106.992 68.6487H105.109L109.416 76.4951L109.356 76.6032C108.938 77.4508 108.428 78.0238 107.395 78.0238C107.091 78.0209 106.79 77.9794 106.497 77.9005V79.3816C106.851 79.5239 107.23 79.5923 107.611 79.5827C109.124 79.5827 110.158 78.7027 110.899 77.0659L114.683 68.6487H112.938L110.281 74.6876ZM123.775 73.2043H118.445V68.6487H116.757V79.4595H118.454V74.7481H123.784V79.4595H125.481V68.6487H123.784L123.775 73.2043ZM130.363 76.6789H130.318V68.6487H128.618V79.4595H130.162L136.076 71.4292H136.108V79.4595H137.805V68.6487H136.262L130.363 76.6789ZM147.178 73.6519C147.585 73.4613 147.928 73.1573 148.166 72.7764C148.405 72.3955 148.528 71.954 148.521 71.5049C148.521 69.9611 147.209 68.6487 145.278 68.6487H140.954V79.4595H145.514C147.6 79.4595 149.066 77.9914 149.066 76.2941C149.062 74.8735 147.965 73.946 147.178 73.6519ZM142.653 70.1168H145.278C146.205 70.1168 146.822 70.733 146.822 71.5827C146.822 72.4324 146.205 73.0508 145.278 73.0508H142.653V70.1168ZM145.514 77.9914H142.653V74.4411H145.514C146.595 74.4411 147.366 75.213 147.366 76.2162C147.366 77.2195 146.595 77.9914 145.514 77.9914ZM153.297 74.6249H158.009V73.0811H153.284V70.1924H159.23V68.6487H151.587V79.4595H159.386V77.9157H153.284L153.297 74.6249ZM166.03 68.6487H161.706V79.4595H163.403V75.5978H166.03C168.115 75.5978 169.658 74.0541 169.658 72.1232C169.658 70.1924 168.102 68.6487 166.017 68.6487H166.03ZM166.03 74.0541H163.39V70.1924H166.017C166.529 70.1924 167.02 70.3959 167.383 70.758C167.745 71.1201 167.948 71.6112 167.948 72.1232C167.948 72.6353 167.745 73.1264 167.383 73.4885C167.02 73.8506 166.529 74.0541 166.017 74.0541H166.03ZM177.187 78.0692C176.122 78.0692 175.101 77.6462 174.348 76.8932C173.595 76.1402 173.172 75.1189 173.172 74.0541C173.172 72.9892 173.595 71.9679 174.348 71.2149C175.101 70.4619 176.122 70.0389 177.187 70.0389C177.801 70.0311 178.408 70.1617 178.965 70.4211C179.521 70.6805 180.012 71.0621 180.4 71.5373L181.589 70.5643C181.055 69.9142 180.383 69.3911 179.621 69.0332C178.86 68.6753 178.028 68.4915 177.187 68.4951C173.944 68.4951 171.472 70.9643 171.472 74.0541C171.472 77.1438 173.944 79.613 177.187 79.613C178.043 79.6134 178.889 79.424 179.663 79.0583C180.438 78.6927 181.121 78.1599 181.665 77.4984L180.476 76.5254C179.831 77.2346 178.841 78.0692 177.174 78.0692H177.187ZM185.589 76.6789H185.542V68.6487H183.842V79.4595H185.388L191.302 71.4292H191.334V79.4595H193.031V68.6487H191.488L185.589 76.6789ZM195.131 70.1924H198.374V79.4595H200.074V70.1924H203.317V68.6487H195.118L195.131 70.1924ZM207.105 74.6249H211.816V73.0811H207.092V70.1924H213.038V68.6487H205.392V79.4595H213.189V77.9157H207.092L207.105 74.6249ZM214.871 68.6487V70.1924H218.115V79.4595H219.814V70.1924H223.057V68.6487H214.871Z" fill="#505569"/>
<path d="M117.561 49.4141L107.055 38.1211H105.405V60H110.013V47.6757L116.917 54.9189H118.214L125.118 47.6714V59.9957H129.725V38.1211H128.065L117.561 49.4141ZM138.577 51.3773V38.3784H133.972V60.2573H135.754L149.189 47.0032V60H153.795V38.1211H152.013L138.577 51.3773ZM168.011 42.3222C170.404 42.3222 172.538 43.6195 173.939 45.747L177.183 42.6119C176.134 41.1582 174.757 39.9734 173.163 39.1545C171.568 38.3356 169.803 37.9059 168.011 37.9005C161.788 37.9005 156.551 42.8087 156.551 49.1892C156.551 55.5697 161.799 60.4778 168.011 60.4778C169.803 60.4725 171.568 60.0428 173.163 59.2239C174.757 58.405 176.134 57.2202 177.183 55.7665L173.939 52.6314C172.538 54.7589 170.404 56.0562 168.011 56.0562C164.294 56.0562 161.267 53.2065 161.267 49.1892C161.267 45.1719 164.294 42.3222 168.011 42.3222ZM184.735 51.3773V38.3784H180.128V60.2573H181.911L195.351 47.0032V60H199.959V38.1211H198.175L184.735 51.3773ZM214.169 56.0562C210.45 56.0562 207.425 53.2065 207.425 49.1892C207.425 45.1719 210.452 42.3222 214.169 42.3222C216.562 42.3222 218.696 43.6195 220.095 45.747L223.338 42.6119C222.29 41.1584 220.912 39.9738 219.318 39.1549C217.724 38.3361 215.959 37.9062 214.166 37.9005C207.942 37.9005 202.694 42.8087 202.694 49.1892C202.694 55.5697 207.942 60.4778 214.166 60.4778C215.961 60.4742 217.729 60.0453 219.325 59.2264C220.922 58.4074 222.302 57.2217 223.351 55.7665L220.108 52.6314C218.696 54.7589 216.562 56.0562 214.169 56.0562Z" fill="#505569"/>
</g>
<defs>
<linearGradient id="paint0_linear_22_251" x1="36.4606" y1="97.0227" x2="50.4346" y2="17.773" gradientUnits="userSpaceOnUse">
<stop offset="0.05" stop-color="#0541F0"/>
<stop offset="0.21" stop-color="#126CF4"/>
<stop offset="0.44" stop-color="#22A2F9"/>
<stop offset="0.64" stop-color="#2DCAFC"/>
<stop offset="0.8" stop-color="#34E2FE"/>
<stop offset="0.9" stop-color="#37EBFF"/>
</linearGradient>
<linearGradient id="paint1_linear_22_251" x1="53.12" y1="66.88" x2="66.88" y2="53.12" gradientUnits="userSpaceOnUse">
<stop offset="0.06" stop-color="#37EBFF"/>
<stop offset="0.19" stop-color="#36E7FF"/>
<stop offset="0.32" stop-color="#32DAFE"/>
<stop offset="0.45" stop-color="#2CC6FC"/>
<stop offset="0.58" stop-color="#23A9F9"/>
<stop offset="0.71" stop-color="#1883F6"/>
<stop offset="0.85" stop-color="#0B56F2"/>
<stop offset="0.9" stop-color="#0541F0"/>
</linearGradient>
<linearGradient id="paint2_linear_22_251" x1="59.6346" y1="90.1362" x2="79.7189" y2="34.9557" gradientUnits="userSpaceOnUse">
<stop offset="0.05" stop-color="#37EBFF"/>
<stop offset="0.16" stop-color="#2DC8FC"/>
<stop offset="0.34" stop-color="#1F98F8"/>
<stop offset="0.51" stop-color="#1472F4"/>
<stop offset="0.66" stop-color="#0C57F2"/>
<stop offset="0.8" stop-color="#0747F1"/>
<stop offset="0.9" stop-color="#0541F0"/>
</linearGradient>
<linearGradient id="paint3_linear_22_251" x1="43.7881" y1="72.0714" x2="72.0714" y2="43.786" gradientUnits="userSpaceOnUse">
<stop offset="0.11" stop-color="#0541F0"/>
<stop offset="0.89" stop-color="#37EBFF"/>
</linearGradient>
<clipPath id="clip0_22_251">
<rect width="242.8" height="120" fill="white"/>
</clipPath>
</defs>
</svg>
